# xmcd CD database file
#
# Track frame offsets:
#	150
#	22507
#	50350
#	81615
#	107445
#	134095
#	163255
#	188987
#	213000
#	248295
#	275135
#
# Disc length: 4059 seconds
#
# Revision: 0
# Processed by: cddbd v1.5PL3 Copyright (c) Steve Scherf et al.
# Submitted via: CDex 1.51
#
DISCID=920fd90b
DTITLE=Fumio Karashima - It's Just Beginning
DYEAR=2004
DGENRE=Jazz
TTITLE0=You And Night And The Music
TTITLE1=All Of You
TTITLE2=Haunted Heart
TTITLE3=Till Then
TTITLE4=Mr.P.C
TTITLE5=Mother Of Earl
TTITLE6=It's Just Beginning
TTITLE7=Comrade
TTITLE8=My Funny Valentine
TTITLE9=Rain
TTITLE10=Un Poco Loco
EXTD=YEAR: 2004
EXTT0=
EXTT1=
EXTT2=
EXTT3=
EXTT4=
EXTT5=
EXTT6=
EXTT7=
EXTT8=
EXTT9=
EXTT10=
PLAYORDER=
